<?xml version="1.0" encoding="UTF-8"?>
<svg width="13px" height="13px" viewBox="0 0 13 13" version="1.1" xmlns="http://www.w3.org/2000/svg" xmlns:xlink="http://www.w3.org/1999/xlink">
    <!-- Generator: Sketch 43.2 (39069) - http://www.bohemiancoding.com/sketch -->
    <title>circle-plus-orange</title>
    <desc>Created with Sketch.</desc>
    <defs></defs>
    <g id="Page-1" stroke="none" stroke-width="1" fill="none" fill-rule="evenodd">
        <g id="circle-plus-orange" fill="#279FCB">
            <path d="M6.26,-1.92734717e-16 C2.80361182,0.00220644063 0.00220644063,2.80361182 -8.8817842e-16,6.26 C0.00220644063,9.71638818 2.80361182,12.5177936 6.26,12.52 C9.71638818,12.5177936 12.5177936,9.71638818 12.52,6.26 C12.5177936,2.80361182 9.71638818,0.00220644063 6.26,-8.8817842e-16 L6.26,-1.92734717e-16 Z M6.26,0.57 C7.76932584,0.569203592 9.21706237,1.16842826 10.2843171,2.23568294 C11.3515717,3.30293763 11.9507964,4.75067416 11.95,6.26 C11.9507964,7.76932584 11.3515717,9.21706237 10.2843171,10.2843171 C9.21706237,11.3515717 7.76932584,11.9507964 6.26,11.95 C4.75067416,11.9507964 3.30293763,11.3515717 2.23568294,10.2843171 C1.16842826,9.21706237 0.569203592,7.76932584 0.57,6.26 C0.569203592,4.75067416 1.16842826,3.30293763 2.23568294,2.23568294 C3.30293763,1.16842826 4.75067416,0.569203592 6.26,0.57 L6.26,0.57 Z M6.229,2.84 C6.08203522,2.85557167 5.97157546,2.98125225 5.975,3.129 L5.975,5.974 L3.103,5.974 C2.94559885,5.98145585 2.82404416,6.11509885 2.83150001,6.2725 C2.83895585,6.42990115 2.97259885,6.55145584 3.13,6.544 L5.975,6.544 L5.975,9.39 C5.975,9.54740115 6.10259885,9.675 6.26,9.675 C6.41740115,9.675 6.545,9.54740115 6.545,9.39 L6.545,6.545 L9.39,6.545 C9.54740115,6.545 9.675,6.41740115 9.675,6.26 C9.675,6.10259885 9.54740115,5.975 9.39,5.975 L6.545,5.975 L6.545,3.13 C6.54663893,3.04802973 6.51289758,2.96932399 6.45239724,2.91399298 C6.39189691,2.85866198 6.31049841,2.83206577 6.229,2.841 L6.229,2.84 Z" id="Shape"></path>
        </g>
    </g>
</svg>