<svg width="13" height="13" viewBox="0 0 13 13" xmlns="http://www.w3.org/2000/svg"><title>Page 1</title><path d="M6.26 0A6.264 6.264 0 0 0 0 6.26a6.264 6.264 0 0 0 6.26 6.26 6.264 6.264 0 0 0 6.26-6.26A6.264 6.264 0 0 0 6.26 0zm0 .57a5.687 5.687 0 0 1 5.69 5.69 5.687 5.687 0 0 1-5.69 5.69A5.687 5.687 0 0 1 .57 6.26 5.687 5.687 0 0 1 6.26.57zm-.031 2.27a.284.284 0 0 0-.254.289v2.845H3.103a.285.285 0 0 0 .027.57h2.845V9.39a.285.285 0 1 0 .57 0V6.545H9.39a.285.285 0 1 0 0-.57H6.545V3.13a.285.285 0 0 0-.316-.289z" fill="#FFA11A" fill-rule="evenodd"/></svg>