<svg width="42" height="24" viewBox="0 0 42 24" xmlns="http://www.w3.org/2000/svg"><title>Fill 1</title><path d="M41.998 11.921a.315.315 0 0 0-.005-.052l-.002-.026a.236.236 0 0 1-.004-.037l-.007-.044v-.004a1.58 1.58 0 0 0-.44-.861c-1.338-1.583-2.933-2.992-4.554-4.278-3.489-2.77-7.48-5.09-11.889-6.024a19.922 19.922 0 0 0-7.67-.107c-2.329.415-4.573 1.278-6.673 2.348C7.466 4.511 4.463 6.82 1.846 9.407c-.483.48-.967.969-1.406 1.49-.587.693-.587 1.513 0 2.204 1.339 1.583 2.933 2.991 4.554 4.278 3.491 2.771 7.483 5.09 11.889 6.024 2.546.538 5.11.562 7.67.106 2.327-.414 4.571-1.277 6.674-2.348 3.287-1.674 6.29-3.983 8.907-6.57.483-.48.967-.969 1.407-1.49.234-.233.387-.536.44-.861v-.004l.006-.044c.002-.013.004-.024.004-.037l.002-.027c.003-.017.003-.032.005-.05C42 12.053 42 12.027 42 12c0-.026 0-.052-.002-.079zM21 20.054c-4.463 0-8.08-3.606-8.08-8.054S16.536 3.946 21 3.946 29.08 7.552 29.08 12s-3.617 8.054-8.08 8.054z" fill-rule="evenodd"/></svg>