<svg width="44" height="34" viewBox="0 0 44 34" xmlns="http://www.w3.org/2000/svg"><title>Page 1</title><path d="M7.125 34l-2.101-2.101L36.825.098l2.101 2.101L7.125 34zM21.75 21.551l-4.199 4.199a9.861 9.861 0 0 0 4.426 1.051 9.733 9.733 0 0 0 9.75-9.75 9.861 9.861 0 0 0-1.051-4.426l-4.199 4.199c0 2.789-1.938 4.727-4.727 4.727zm.454-9l4.199-4.199a9.861 9.861 0 0 0-4.426-1.051 9.733 9.733 0 0 0-9.75 9.75c0 1.574.375 3.074 1.051 4.426l4.199-4.199c0-2.789 1.938-4.727 4.727-4.727zm-.227-8.25h.977-.977zm7.426 1.055c-1.949-.602-4.125-.977-6.449-1.051 2.101.148 3.976.824 5.699 1.875l.75-.824zM43.5 16.301c-.148-.301-2.925-4.801-8.324-8.176l-2.324 2.324a12.534 12.534 0 0 1 1.875 6.602c0 7.051-5.699 12.75-12.75 12.75 14.176 0 21.227-11.477 21.523-12l.45-.75-.45-.75zm-21.523 13.5H21h.977zm-7.348-1.047c1.95.602 4.125.977 6.45 1.051-2.102-.149-3.977-.824-5.7-1.875l-.75.824zm-3.527-5.101c-1.199-1.875-1.875-4.204-1.875-6.602 0-7.051 5.699-12.75 12.75-12.75C12.559 4.301 4.465 9.61 0 17.051a26.713 26.713 0 0 0 8.774 8.926l2.328-2.324z" fill="#FFF" fill-rule="evenodd"/></svg>