<svg width="73" height="35" viewBox="0 0 73 35" xmlns="http://www.w3.org/2000/svg"><title>Page 1</title><path d="M6.026 6.129c6.289-6.29 16.54-6.234 22.897.122l3.837 3.837 30.53.164 7.673 7.673-7.592 7.592-3.836-3.837-3.796 3.796-3.837-3.837-3.795 3.796-3.837-3.837-3.796 3.796-3.836-3.837-7.592 7.592c-6.289 6.288-16.54 6.234-22.897-.123-6.357-6.357-6.412-16.609-.123-22.897zm15.347 15.346c2.095-2.095 2.077-5.514-.041-7.632-2.119-2.118-5.537-2.137-7.633-.041-2.095 2.096-2.077 5.514.041 7.632 2.119 2.119 5.537 2.137 7.633.041z" stroke="#949494" stroke-width="1.75" fill="none"/></svg>