<svg width="11" height="14" viewBox="0 0 11 14" xmlns="http://www.w3.org/2000/svg"><title>Page 1</title><path d="M.145 11.772c.33 1.179 4.587 1.394 5.241 1.348.654.046 4.908-.17 5.238-1.348 1.039-4.164-3.815-2.91-3.879-5.223.38-.4.644-.89.723-1.18.051-.184.088-.382.111-.53a.715.715 0 0 0 .355-.378c.096-.241.148-.76.149-.783.04-.411-.103-.647-.116-.661C8.135 1.349 7.6 1.02 7.247.96 7.12.939 6.929.892 6.844.798c-.2-.22-.288-.464-.632-.444a.62.62 0 0 1-.396-.115C5.684.128 5.502 0 5.368 0c-.132 0-.298.124-.42.232a.584.584 0 0 1-.39.12c-.344-.019-.433.226-.632.445-.085.094-.276.142-.402.163-.356.059-.889.388-.72 2.058-.016.013-.157.252-.117.66.001.022.053.541.149.783a.71.71 0 0 0 .354.377c.024.15.06.347.11.531.082.297.348.798.734 1.199h-.007C3.973 8.889-.893 7.605.145 11.772z" fill="#FFF" fill-rule="evenodd"/></svg>