<?xml version="1.0" encoding="UTF-8" standalone="no"?>
<svg width="30px" height="33px" viewBox="0 0 30 33" version="1.1" xmlns="http://www.w3.org/2000/svg" xmlns:xlink="http://www.w3.org/1999/xlink">
    <!-- Generator: Sketch 43.2 (39069) - http://www.bohemiancoding.com/sketch -->
    <title>Page 1</title>
    <desc>Created with Sketch.</desc>
    <defs></defs>
    <g id="Page-1" stroke="none" stroke-width="1" fill="none" fill-rule="evenodd">
        <g id="Artboard-4-Copy-11" transform="translate(-651.000000, -245.000000)" fill="#2DA9D1">
            <g id="Page-1" transform="translate(651.000000, 245.000000)">
                <path d="M15.004898,14.9694 C15.8179592,14.9694 16.4730612,14.325 16.4730612,13.5306 L16.4730612,1.7388 C16.4730612,0.9444 15.8155102,0.3 15.004898,0.3 C14.1942857,0.3 13.5361224,0.9444 13.5361224,1.7388 L13.5361224,13.5282 C13.5361224,14.325 14.1942857,14.9694 15.004898,14.9694 Z" id="Fill-1"></path>
                <path d="M23.5212245,6.3306 C22.8587755,5.871 21.9404082,6.0282 21.4738776,6.6774 C21.0073469,7.3266 21.1653061,8.2266 21.8277551,8.6838 C24.9869388,10.8654 26.8744898,14.4186 26.8744898,18.1872 C26.8744898,24.6024 21.5504082,29.8194 15.004898,29.8194 C8.46122449,29.8194 3.1377551,24.6024 3.1377551,18.1896 C3.1377551,14.421 5.0222449,10.8678 8.18387755,8.6862 C8.84632653,8.229 9.00673469,7.329 8.5377551,6.6798 C8.07183673,6.0306 7.15591837,5.8734 6.49102041,6.333 C2.55183673,9.0516 0.200816327,13.4838 0.200816327,18.1896 C0.200816327,26.1912 6.84244898,32.7 15.004898,32.7 C23.1697959,32.7 29.8108163,26.1912 29.8108163,18.1896 C29.8132653,13.4838 27.4604082,9.0516 23.5212245,6.3306 Z" id="Fill-2"></path>
            </g>
        </g>
    </g>
</svg>