<?xml version="1.0" encoding="UTF-8"?>
<svg width="16px" height="16px" viewBox="0 0 16 16" version="1.1" xmlns="http://www.w3.org/2000/svg" xmlns:xlink="http://www.w3.org/1999/xlink">
    <!-- Generator: Sketch 43.2 (39069) - http://www.bohemiancoding.com/sketch -->
    <title>Page 1</title>
    <desc>Created with Sketch.</desc>
    <defs></defs>
    <g id="Page-1" stroke="none" stroke-width="1" fill="none" fill-rule="evenodd">
        <g id="Artboard-8" transform="translate(-626.000000, -69.000000)" fill="#FFFFFF">
            <g id="Page-1" transform="translate(626.000000, 69.000000)">
                <polygon id="Fill-1" points="0 16 4 16 4 12 0 12"></polygon>
                <polygon id="Fill-2" points="12 16 16 16 16 12 12 12"></polygon>
                <polygon id="Fill-3" points="6 16 10 16 10 12 6 12"></polygon>
                <polygon id="Fill-4" points="2.66688 8.66688 7.33312 8.66688 7.33312 10.66688 8.666864 10.66688 8.666864 8.66688 13.333104 8.66688 13.333104 10.66688 14.666848 10.66688 14.666848 7.33312 8.666848 7.33312 8.666848 5.33312 7.333104 5.33312 7.333104 7.33312 1.33310384 7.33312 1.33310384 10.66688 2.666848 10.66688"></polygon>
                <polygon id="Fill-5" points="6 4 10 4 10 0 6 0"></polygon>
            </g>
        </g>
    </g>
</svg>