<?xml version="1.0" encoding="UTF-8"?>
<svg width="26px" height="18px" viewBox="0 0 26 18" version="1.1" xmlns="http://www.w3.org/2000/svg" xmlns:xlink="http://www.w3.org/1999/xlink" xmlns:sketch="http://www.bohemiancoding.com/sketch/ns">
    <!-- Generator: Sketch 3.3.3 (12072) - http://www.bohemiancoding.com/sketch -->
    <title>subenvs-white + noun_1161426</title>
    <desc>Created with Sketch.</desc>
    <defs></defs>
    <g id="Page-1" stroke="none" stroke-width="1" fill="none" fill-rule="evenodd" sketch:type="MSPage">
        <g id="Artboard-1" sketch:type="MSArtboardGroup" transform="translate(-78.000000, -111.000000)">
            <g id="subenvs-white-+-noun_1161426" sketch:type="MSLayerGroup" transform="translate(78.000000, 111.000000)">
                <g id="subenvs-white" transform="translate(0.000000, 1.000000)">
                    <g id="Page-1">
                        <g id="Artboard-8">
                            <g id="Page-1">
                                <path d="M0.0997551306,17 L4.08312928,17 L4.08312928,13.0000534 L0.0997551306,13.0000534 L0.0997551306,17 Z" id="Fill-1" fill="#FFFFFF" sketch:type="MSShapeGroup"></path>
                                <path d="M16.0332517,13.3566439 L16.0332517,16.9459125 L12.0498776,16.9459125 L12.0498776,12.945966 L14.6657066,12.945966 C15.1024864,13.1243772 15.5598524,13.2627874 16.0332517,13.3566439 Z" id="Fill-2" fill="#FFFFFF" sketch:type="MSShapeGroup"></path>
                                <path d="M6.07481635,17 L10.0581905,17 L10.0581905,13.0000534 L6.07481635,13.0000534 L6.07481635,17 Z" id="Fill-3" fill="#FFFFFF" sketch:type="MSShapeGroup"></path>
                                <path d="M11.171436,9.64062966 L8.73059562,9.64062966 L8.73059562,11.6406029 L7.40239528,11.6406029 L7.40239528,9.64062966 L2.75555034,9.64062966 L2.75551847,11.6406029 L1.42731797,11.6406029 L1.42731797,8.30688747 L7.40237935,8.30688747 L7.40237935,6.30691419 L8.73057969,6.30691419 L8.73057969,8.30688747 L10.4684681,8.30688747 C10.653835,8.77946973 10.8904361,9.22632898 11.171436,9.64062966 Z" id="Fill-4" fill="#FFFFFF" sketch:type="MSShapeGroup"></path>
                                <path d="M9.84906898,4.9959999 L6.07481635,4.9959999 L6.07481635,0.996053332 L10.0581905,0.996053332 L10.0581905,3.95325702 C9.9623886,4.29090161 9.89195148,4.63921252 9.84906898,4.9959999 Z" id="Fill-5" fill="#FFFFFF" sketch:type="MSShapeGroup"></path>
                                <g id="Group" transform="translate(9.062347, 0.000227)"></g>
                            </g>
                        </g>
                    </g>
                </g>
                <g id="noun_1161426" transform="translate(11.000000, 0.000000)" fill="#78DEFA" sketch:type="MSShapeGroup">
                    <g id="Shape-+-Oval-1">
                        <path d="M13.2043478,6.69565217 C13.2068455,3.64495461 11.0941644,1.00014225 8.11830446,0.32856243 C5.14244452,-0.343017388 2.09864041,1.13810062 0.790686751,3.89418826 C-0.517266911,6.6502759 0.260152396,9.94482795 2.66223672,11.8254536 C5.06432105,13.7060792 8.44916494,13.6702216 10.8108696,11.7391304 L14.0152174,14.9369565 L14.9369565,14.0152174 L11.7391304,10.8108696 C12.6893945,9.65021973 13.2072792,8.19568592 13.2043478,6.69565217 L13.2043478,6.69565217 Z M1.52405625,6.73588628 C1.52329356,4.40554492 3.07234928,2.35899667 5.31535029,1.72698565 C7.55835129,1.09497463 9.9480079,2.0317108 11.1640042,4.01963544 C12.3800006,6.00756007 12.1256349,8.56162183 10.5414475,10.2706689 L10.2610128,10.5511037 C8.74472427,11.9580578 6.53872993,12.3325265 4.64309442,11.5047484 C2.74745891,10.6769702 1.52270267,8.80437577 1.52405625,6.73588628 L1.52405625,6.73588628 Z" id="Shape"></path>
                    </g>
                    <path d="M9.51000023,6.00660176 L7.49801906,6.00660176 L7.49801906,3.99710145 L6.00950031,3.99710145 L6.00950031,6.00660176 L4,6.00660176 L4,7.4951205 L6.00950031,7.4951205 L6.00950031,9.50710168 L7.49801906,9.50710168 L7.49801906,7.4951205 L9.51000023,7.4951205 L9.51000023,6.00660176 L9.51000023,6.00660176 Z" id="Shape"></path>
                </g>
            </g>
        </g>
    </g>
</svg>