<?xml version="1.0" encoding="UTF-8" standalone="no"?>
<svg width="47px" height="25px" viewBox="0 0 47 25" version="1.1" xmlns="http://www.w3.org/2000/svg" xmlns:xlink="http://www.w3.org/1999/xlink">
    <!-- Generator: Sketch 41.2 (35397) - http://www.bohemiancoding.com/sketch -->
    <title>x=y</title>
    <desc>Created with Sketch.</desc>
    <defs></defs>
    <g id="Page-1" stroke="none" stroke-width="1" fill="none" fill-rule="evenodd">
        <path d="M0.072,0.129 L4.4535,9.1335 L-0.0315,18 L4.35,18 C5.454,15.516 6.489,13.101 6.903,12.1695 L6.9375,12.1695 C7.317,13.17 8.0415,14.8605 9.3525,18 L13.941,18 L9.3525,8.547 L13.941,0.129 L9.594,0.129 C8.49,2.613 7.593,4.476 7.0755,5.6835 L7.041,5.6835 C6.627,4.752 5.9025,3.165 4.5915,0.129 L0.072,0.129 Z M15.252,11.4795 L15.252,13.7565 L29.9835,13.7565 L29.9835,11.4795 L15.252,11.4795 Z M15.252,4.9245 L15.252,7.2015 L29.9835,7.2015 L29.9835,4.9245 L15.252,4.9245 Z M31.881,0.129 L37.263,18.2415 C36.78,20.346 36.228,21.1395 34.6755,21.1395 C34.2615,21.1395 33.606,21.105 33.3645,21.0705 L33.3645,24.555 C33.882,24.6585 34.5375,24.693 34.986,24.693 C37.47,24.693 39.471,24.3825 40.989,18.7935 L46.1295,0.129 L41.9895,0.129 C40.782,5.166 39.609,10.3755 39.195,12.894 L39.1605,12.894 C38.9535,10.755 37.7115,5.8905 36.4005,0.129 L31.881,0.129 Z" id="x=y" fill="#000000"></path>
    </g>
</svg>