<svg width="47" height="25" viewBox="0 0 47 25" xmlns="http://www.w3.org/2000/svg"><title>x=y</title><path d="M.072.129l4.381 9.005L-.032 18H4.35c1.104-2.484 2.139-4.899 2.553-5.83h.035c.379 1 1.103 2.69 2.414 5.83h4.589L9.352 8.547 13.941.129H9.594C8.49 2.613 7.593 4.476 7.076 5.684H7.04C6.626 4.752 5.901 3.165 4.59.129H.072zm15.18 11.35v2.278h14.731V11.48H15.252zm0-6.554v2.277h14.731V4.925H15.252zM31.881.128l5.382 18.112c-.483 2.105-1.035 2.899-2.587 2.899-.415 0-1.07-.035-1.312-.07v3.485c.518.104 1.174.138 1.622.138 2.484 0 4.485-.31 6.003-5.9L46.129.13h-4.14c-1.207 5.037-2.38 10.247-2.794 12.765h-.035C38.954 10.756 37.712 5.892 36.4.13h-4.519z" fill-rule="evenodd"/></svg>